REM DIRINDEX 1\2\6,1\2\7,1\2\8,1\2\9,1\3\10,1\3\11,1\4\12,1\4\13,1\4\14,1\5\15,1\5\16,1\5\17
REM DIRNAME folder01,folder02,folder03,folder04,folder05,folder06,folder07,folder08,folder09,folder10,folder11,folder12,folder13,folder14,folder15,folder16,folder17
TITLE ""
FILE "1900_2_sec01_0001_0015.mp3" MP3
  TRACK 01 AUDIO
    TITLE "0:"
    INDEX 01 00:00:00
  TRACK 02 AUDIO
    TITLE "12:cjc020_2082"
    INDEX 01 00:03:21
  TRACK 03 AUDIO
    TITLE "0:"
    INDEX 01 00:08:21
  TRACK 04 AUDIO
    TITLE "12:cjc020_2083"
    INDEX 01 00:08:64
  TRACK 05 AUDIO
    TITLE "0:"
    INDEX 01 00:10:23
  TRACK 06 AUDIO
    TITLE "12:cjc020_2084"
    INDEX 01 00:10:65
  TRACK 07 AUDIO
    TITLE "0:"
    INDEX 01 00:12:14
  TRACK 08 AUDIO
    TITLE "13:cjc020_2085"
    INDEX 01 00:13:14
  TRACK 09 AUDIO
    TITLE "0:"
    INDEX 01 00:14:29
  TRACK 10 AUDIO
    TITLE "14:cjc020_2086"
    INDEX 01 00:14:33
  TRACK 11 AUDIO
    TITLE "0:"
    INDEX 01 00:17:02
  TRACK 12 AUDIO
    TITLE "13:cjc020_2087"
    INDEX 01 00:17:57
  TRACK 13 AUDIO
    TITLE "0:"
    INDEX 01 00:18:64
  TRACK 14 AUDIO
    TITLE "14:cjc020_2088"
    INDEX 01 00:18:66
  TRACK 15 AUDIO
    TITLE "0:"
    INDEX 01 00:21:53
  TRACK 16 AUDIO
    TITLE "13:cjc020_2089"
    INDEX 01 00:22:36
  TRACK 17 AUDIO
    TITLE "0:"
    INDEX 01 00:23:48
  TRACK 18 AUDIO
    TITLE "14:cjc020_2090"
    INDEX 01 00:23:51
  TRACK 19 AUDIO
    TITLE "0:"
    INDEX 01 00:25:05
  TRACK 20 AUDIO
    TITLE "13:cjc020_2091"
    INDEX 01 00:25:58
  TRACK 21 AUDIO
    TITLE "0:"
    INDEX 01 00:26:67
  TRACK 22 AUDIO
    TITLE "14:cjc020_2092"
    INDEX 01 00:26:69
  TRACK 23 AUDIO
    TITLE "0:"
    INDEX 01 00:29:15
  TRACK 24 AUDIO
    TITLE "13:cjc020_2093"
    INDEX 01 00:29:72
  TRACK 25 AUDIO
    TITLE "0:"
    INDEX 01 00:31:10
  TRACK 26 AUDIO
    TITLE "14:cjc020_2094"
    INDEX 01 00:31:16
  TRACK 27 AUDIO
    TITLE "0:"
    INDEX 01 00:32:17
  TRACK 28 AUDIO
    TITLE "13:cjc020_2095"
    INDEX 01 00:32:70
  TRACK 29 AUDIO
    TITLE "0:"
    INDEX 01 00:34:14
  TRACK 30 AUDIO
    TITLE "14:cjc020_2096"
    INDEX 01 00:34:16
  TRACK 31 AUDIO
    TITLE "0:"
    INDEX 01 00:40:48
  TRACK 32 AUDIO
    TITLE "13:cjc020_2097"
    INDEX 01 00:41:26
  TRACK 33 AUDIO
    TITLE "0:"
    INDEX 01 00:42:41
  TRACK 34 AUDIO
    TITLE "14:cjc020_2098"
    INDEX 01 00:42:47
  TRACK 35 AUDIO
    TITLE "0:"
    INDEX 01 00:45:12
  TRACK 36 AUDIO
    TITLE "13:cjc020_2099"
    INDEX 01 00:45:69
  TRACK 37 AUDIO
    TITLE "0:"
    INDEX 01 00:47:05
  TRACK 38 AUDIO
    TITLE "14:cjc020_2100"
    INDEX 01 00:47:09
  TRACK 39 AUDIO
    TITLE "0:"
    INDEX 01 00:49:47
  TRACK 40 AUDIO
    TITLE "13:cjc020_2101"
    INDEX 01 00:50:27
  TRACK 41 AUDIO
    TITLE "0:"
    INDEX 01 00:51:34
  TRACK 42 AUDIO
    TITLE "14:cjc020_2102"
    INDEX 01 00:51:36
  TRACK 43 AUDIO
    TITLE "0:"
    INDEX 01 00:55:03
  TRACK 44 AUDIO
    TITLE "13:cjc020_2103"
    INDEX 01 00:55:59
  TRACK 45 AUDIO
    TITLE "0:"
    INDEX 01 00:56:72
  TRACK 46 AUDIO
    TITLE "14:cjc020_2104"
    INDEX 01 00:56:74
  TRACK 47 AUDIO
    TITLE "0:"
    INDEX 01 00:59:63
  TRACK 48 AUDIO
    TITLE "13:cjc020_2105"
    INDEX 01 01:00:43
  TRACK 49 AUDIO
    TITLE "0:"
    INDEX 01 01:01:50
  TRACK 50 AUDIO
    TITLE "14:cjc020_2106"
    INDEX 01 01:01:52
  TRACK 51 AUDIO
    TITLE "0:"
    INDEX 01 01:04:62
  TRACK 52 AUDIO
    TITLE "13:cjc020_2107"
    INDEX 01 01:05:42
  TRACK 53 AUDIO
    TITLE "0:"
    INDEX 01 01:06:38
  TRACK 54 AUDIO
    TITLE "14:cjc020_2108"
    INDEX 01 01:06:42
  TRACK 55 AUDIO
    TITLE "0:"
    INDEX 01 01:09:10
  TRACK 56 AUDIO
    TITLE "13:cjc020_2109"
    INDEX 01 01:09:63
  TRACK 57 AUDIO
    TITLE "0:"
    INDEX 01 01:10:71
  TRACK 58 AUDIO
    TITLE "14:cjc020_2110"
    INDEX 01 01:11:00
  TRACK 59 AUDIO
    TITLE "0:"
    INDEX 01 01:13:71
  TRACK 60 AUDIO
    TITLE "13:cjc020_2111"
    INDEX 01 01:14:49
  TRACK 61 AUDIO
    TITLE "0:"
    INDEX 01 01:15:66
  TRACK 62 AUDIO
    TITLE "14:cjc020_2112"
    INDEX 01 01:15:72
  TRACK 63 AUDIO
    TITLE "0:"
    INDEX 01 01:16:69
  TRACK 64 AUDIO
    TITLE "13:cjc020_2113"
    INDEX 01 01:17:47
  TRACK 65 AUDIO
    TITLE "0:"
    INDEX 01 01:18:45
  TRACK 66 AUDIO
    TITLE "14:cjc020_2114"
    INDEX 01 01:18:49
  TRACK 67 AUDIO
    TITLE "0:"
    INDEX 01 01:19:56
